<svg width="23" height="35" viewBox="0 0 23 35" fill="none" xmlns="http://www.w3.org/2000/svg">
<path d="M0.10025 20.3935L10.7777 0.484109C10.9017 0.199508 11.1779 0 11.5 0C11.9379 0 12.2923 0.366894 12.2923 0.820325V13.3886H22.2098V13.3914C22.3405 13.3914 22.4712 13.4249 22.5939 13.4946C22.9752 13.7137 23.1127 14.2117 22.8997 14.6065L12.2223 34.5159C12.0983 34.8005 11.8221 35 11.5 35C11.0621 35 10.7077 34.6331 10.7077 34.1797V21.6114H0.790171V21.6086C0.659464 21.6086 0.528759 21.5751 0.406131 21.5054C0.0247805 21.2864 -0.112651 20.7883 0.10025 20.3935Z" fill="#2563EB"/>
</svg>
