<svg width="33" height="33" viewBox="0 0 33 33" fill="none" xmlns="http://www.w3.org/2000/svg">
<path d="M15.1052 24.3198L27.2423 12.1206C27.3739 11.989 27.5192 11.8695 27.6644 11.7651C27.4662 11.4096 27.097 11.1449 26.6613 11.0798L24.1286 10.7107C23.8124 9.94535 23.7201 9.735 23.4025 8.96967L24.9321 6.91248C25.3407 6.37239 25.2877 5.60706 24.814 5.11853L22.7292 3.0342C22.2406 2.55925 21.4765 2.49276 20.9213 2.90257L18.8773 4.44546C18.0995 4.11571 17.9014 4.037 17.1223 3.71949L16.7531 1.17379C16.6608 0.500726 16.0799 0 15.3944 0H12.4532C11.7677 0 11.1868 0.500726 11.0945 1.17379L10.7253 3.71949C9.9476 4.03567 9.74944 4.11572 8.97035 4.44546L6.92492 2.90257C6.37112 2.49411 5.60562 2.55925 5.11701 3.0342L3.04579 5.11853C2.55719 5.60567 2.50423 6.37104 2.91414 6.91248L4.44515 8.98322C4.12889 9.74855 4.04882 9.94531 3.73256 10.7107L1.18629 11.0798C0.500839 11.1856 0 11.7651 0 12.4517V15.3923C0 16.0776 0.500839 16.6583 1.18629 16.7506L3.71901 17.1197C4.03526 17.885 4.12756 18.0954 4.44515 18.8607L2.91414 20.9179C2.50558 21.4716 2.55854 22.2369 3.04579 22.7119L5.11701 24.7962C5.60562 25.2847 6.3698 25.3363 6.92492 24.9278L8.97035 23.3985C9.74809 23.7147 9.94625 23.7948 10.7253 24.1245L11.0945 26.6566C11.1868 27.3297 11.7664 27.8304 12.4532 27.8304H12.7179L12.9282 27.2632C13.0993 26.7354 13.2838 26.3405 13.6015 25.9307C13.9177 25.5222 15.1053 24.3213 15.1053 24.3213L15.1052 24.3198ZM8.6024 13.9145C8.6024 10.9739 10.9899 8.59911 13.9325 8.59911C16.8738 8.59911 19.2491 10.9738 19.2491 13.9145C19.2491 16.8551 16.8617 19.2434 13.9325 19.2434C11.0034 19.2434 8.6024 16.8565 8.6024 13.9145Z" fill="#7C3AED"/>
<path d="M32.6659 15.8849L30.1848 13.4044C29.7396 12.9593 28.9754 12.9593 28.5302 13.4044L16.2087 25.787L20.3119 29.8893L32.6661 17.5379C33.1113 17.0929 33.1113 16.3289 32.6661 15.8838L32.6659 15.8849Z" fill="#7C3AED"/>
<path d="M14.6452 27.8573L13.1495 31.8318C12.8956 32.532 13.5634 33.1996 14.2624 32.9445L18.2378 31.4817C18.5554 31.3541 18.8744 31.1954 19.1282 31.004L15.1202 26.933C14.9288 27.2193 14.7387 27.5368 14.6424 27.8557L14.6452 27.8573Z" fill="#7C3AED"/>
</svg>
