<svg width="32" height="40" viewBox="0 0 32 40" fill="none" xmlns="http://www.w3.org/2000/svg">
<path d="M26.822 10H11.112C9.417 10 8.034 11.373 8.034 13.078V14.548H3.9C3.403 14.548 3 14.951 3 15.448C3 15.945 3.403 16.348 3.9 16.348H8.035V17.611H4.925C4.428 17.611 4.025 18.014 4.025 18.511C4.025 19.008 4.428 19.411 4.925 19.411H8.035V20.675H5.952C5.455 20.675 5.052 21.078 5.052 21.575C5.052 22.072 5.455 22.475 5.952 22.475H8.035V23.938C8.035 25.631 9.42 27.016 11.113 27.016H15.762L18.186 29.469C18.612 29.905 19.322 29.905 19.748 29.469L22.172 27.016H26.821C28.526 27.016 29.899 25.633 29.899 23.938V13.078C29.9 11.378 28.522 10 26.822 10ZM14.261 19.806C13.546 19.806 12.966 19.226 12.966 18.511C12.966 17.796 13.546 17.216 14.261 17.216C14.976 17.216 15.556 17.796 15.556 18.511C15.556 19.226 14.976 19.806 14.261 19.806ZM18.964 19.806C18.249 19.806 17.669 19.226 17.669 18.511C17.669 17.796 18.249 17.216 18.964 17.216C19.679 17.216 20.259 17.796 20.259 18.511C20.259 19.226 19.679 19.806 18.964 19.806ZM23.668 19.806C22.953 19.806 22.373 19.226 22.373 18.511C22.373 17.796 22.953 17.216 23.668 17.216C24.383 17.216 24.963 17.796 24.963 18.511C24.963 19.226 24.383 19.806 23.668 19.806Z" fill="white"/>
</svg>
