<svg width="34" height="24" viewBox="0 0 34 24" fill="none" xmlns="http://www.w3.org/2000/svg">
<path d="M3.62426 0C2.81889 0 2.17039 0.652 2.17039 1.46164V15.9998H23.8725V7.63618C23.8725 6.64185 24.692 5.818 25.681 5.818H29.6598V1.46164C29.6598 0.651964 29.0112 0 28.2059 0H3.62426ZM26.4043 7.27273C25.8038 7.27273 25.3191 7.75993 25.3191 8.36364V22.9091C25.3191 23.5128 25.8038 24 26.4043 24H32.9149C33.5154 24 34 23.5128 34 22.9091V8.36364C34 7.75993 33.5154 7.27273 32.9149 7.27273H26.4043ZM0 17.4545V19.6364C0 20.4417 0.645711 21.0909 1.44681 21.0909H23.8723V17.4545H0ZM29.6596 20.3636C29.8517 20.3636 30.0354 20.4403 30.1711 20.5767C30.3067 20.7131 30.383 20.8977 30.383 21.0909C30.383 21.2841 30.3067 21.4688 30.1711 21.6051C30.0354 21.7415 29.8517 21.8182 29.6596 21.8182C29.2597 21.8182 28.9362 21.4915 28.9362 21.0909C28.9362 20.6889 29.2597 20.3636 29.6596 20.3636Z" fill="#139C72"/>
</svg>
