<svg width="31" height="39" viewBox="0 0 31 39" fill="none" xmlns="http://www.w3.org/2000/svg">
<path d="M14.5312 1.94995H3.39062C2.58809 1.94995 1.9375 2.60473 1.9375 3.41245V8.0437C1.9375 8.85142 2.58809 9.5062 3.39062 9.5062H14.5312C15.3338 9.5062 15.9844 8.85142 15.9844 8.0437V3.41245C15.9844 2.60473 15.3338 1.94995 14.5312 1.94995Z" fill="#EA580C"/>
<path d="M21.0703 11.8219H9.92969C9.12715 11.8219 8.47656 12.4767 8.47656 13.2844V17.9156C8.47656 18.7234 9.12715 19.3781 9.92969 19.3781H21.0703C21.8729 19.3781 22.5234 18.7234 22.5234 17.9156V13.2844C22.5234 12.4767 21.8729 11.8219 21.0703 11.8219Z" fill="#EA580C"/>
<path d="M27.6094 21.6937H16.4688C15.6662 21.6937 15.0156 22.3485 15.0156 23.1562V27.7875C15.0156 28.5952 15.6662 29.25 16.4688 29.25H27.6094C28.4119 29.25 29.0625 28.5952 29.0625 27.7875V23.1562C29.0625 22.3485 28.4119 21.6937 27.6094 21.6937Z" fill="#EA580C"/>
<path d="M26.3984 5.2406H17.6797C17.5512 5.2406 17.428 5.29196 17.3372 5.38339C17.2463 5.47481 17.1953 5.59881 17.1953 5.7281C17.1953 5.85739 17.2463 5.98139 17.3372 6.07282C17.428 6.16424 17.5512 6.2156 17.6797 6.2156H26.3984C26.8479 6.21615 27.2788 6.39609 27.5966 6.71595C27.9144 7.03582 28.0932 7.46949 28.0938 7.92185V13.4062C28.0932 13.8586 27.9144 14.2923 27.5966 14.6121C27.2788 14.932 26.8479 15.1119 26.3984 15.1125H25.3881L26.196 14.2993C26.2839 14.2073 26.3324 14.0843 26.3311 13.9566C26.3298 13.829 26.2789 13.707 26.1892 13.6168C26.0995 13.5265 25.9783 13.4753 25.8515 13.474C25.7247 13.4727 25.6024 13.5216 25.511 13.61L23.8763 15.2553C23.8313 15.3006 23.7956 15.3543 23.7713 15.4134C23.7469 15.4726 23.7344 15.536 23.7344 15.6C23.7344 15.664 23.7469 15.7274 23.7713 15.7865C23.7956 15.8457 23.8313 15.8994 23.8763 15.9447L25.5111 17.59C25.556 17.6352 25.6094 17.6711 25.6682 17.6956C25.727 17.7201 25.7899 17.7327 25.8535 17.7327C25.9171 17.7327 25.9801 17.7201 26.0389 17.6956C26.0976 17.6711 26.151 17.6352 26.196 17.59C26.241 17.5447 26.2766 17.4909 26.301 17.4318C26.3253 17.3727 26.3378 17.3093 26.3378 17.2453C26.3378 17.1813 26.3253 17.1179 26.301 17.0587C26.2766 16.9996 26.2409 16.9459 26.196 16.9006L25.3881 16.0875H26.3984C27.1047 16.0866 27.7819 15.8039 28.2813 15.3012C28.7807 14.7986 29.0617 14.1171 29.0625 13.4062V7.92185C29.0617 7.211 28.7807 6.5295 28.2813 6.02685C27.7819 5.5242 27.1047 5.24144 26.3984 5.2406Z" fill="#EA580C"/>
<path d="M12.028 23.4819C11.9366 23.3931 11.8143 23.344 11.6873 23.3451C11.5603 23.3462 11.4388 23.3975 11.349 23.4879C11.2592 23.5783 11.2082 23.7005 11.2071 23.8284C11.206 23.9562 11.2549 24.0793 11.3431 24.1713L12.151 24.9844H4.60156C4.1521 24.9839 3.72121 24.8039 3.4034 24.4841C3.08558 24.1642 2.90679 23.7305 2.90625 23.2782V17.7938C2.90679 17.3414 3.08558 16.9078 3.4034 16.5879C3.72121 16.268 4.1521 16.0881 4.60156 16.0875H6.78125C6.90971 16.0875 7.03292 16.0362 7.12375 15.9448C7.21459 15.8533 7.26562 15.7293 7.26562 15.6C7.26562 15.4708 7.21459 15.3468 7.12375 15.2553C7.03292 15.1639 6.90971 15.1125 6.78125 15.1125H4.60156C3.89527 15.1134 3.21814 15.3962 2.71871 15.8988C2.21928 16.4014 1.93834 17.0829 1.9375 17.7938V23.2782C1.93834 23.989 2.21928 24.6705 2.71871 25.1732C3.21814 25.6758 3.89527 25.9586 4.60156 25.9594H12.151L11.3431 26.7726C11.2552 26.8646 11.2067 26.9876 11.208 27.1152C11.2092 27.2429 11.2602 27.3649 11.3499 27.4551C11.4395 27.5454 11.5608 27.5966 11.6876 27.5979C11.8144 27.5992 11.9366 27.5503 12.028 27.4619L13.6628 25.8166C13.7078 25.7713 13.7434 25.7176 13.7678 25.6585C13.7921 25.5993 13.8047 25.5359 13.8047 25.4719C13.8047 25.4079 13.7921 25.3445 13.7678 25.2854C13.7434 25.2262 13.7078 25.1725 13.6628 25.1272L12.028 23.4819Z" fill="#EA580C"/>
</svg>
